<svg id="visible" xmlns="http://www.w3.org/2000/svg" xmlns:xlink="http://www.w3.org/1999/xlink" width="75" height="75" viewBox="0 0 75 75">
  <defs>
    <clipPath id="clip-path">
      <path id="Path_36" data-name="Path 36" d="M1387.5-767a37.5,37.5,0,0,0,37.5-37.5,37.5,37.5,0,0,0-37.5-37.5,37.5,37.5,0,0,0-37.5,37.5A37.5,37.5,0,0,0,1387.5-767Z" transform="translate(-1350 842)" fill="#f2f2f2" clip-rule="evenodd"/>
    </clipPath>
  </defs>
  <g id="Background" clip-path="url(#clip-path)">
    <path id="Path_35" data-name="Path 35" d="M1345-847h78.012v78.012H1345Z" transform="translate(-1346.506 845.494)" fill="#f2f2f2"/>
  </g>
  <g id="Icon" transform="translate(13 -140.525)">
    <path id="Path_140" data-name="Path 140" d="M25,161.525A27.45,27.45,0,0,0,.1,177.408a1.072,1.072,0,0,0,0,.907,27.459,27.459,0,0,0,49.8,0,1.072,1.072,0,0,0,0-.907A27.45,27.45,0,0,0,25,161.525Zm0,27.608a11.27,11.27,0,1,1,11.27-11.27A11.269,11.269,0,0,1,25,189.133Z" fill="#fff"/>
    <circle id="Ellipse_2" data-name="Ellipse 2" cx="7.215" cy="7.215" r="7.215" transform="translate(17.785 170.644)" fill="#fff"/>
  </g>
</svg>
